<?xml version="1.0" encoding="utf-8"?>
<!-- Generator: Adobe Illustrator 23.1.0, SVG Export Plug-In . SVG Version: 6.00 Build 0)  -->
<svg version="1.1" id="Слой_1" xmlns="http://www.w3.org/2000/svg" xmlns:xlink="http://www.w3.org/1999/xlink" x="0px" y="0px"
	 viewBox="0 0 59.3 51.2" style="enable-background:new 0 0 59.3 51.2;" xml:space="preserve">
<style type="text/css">
	.st0{fill-rule:evenodd;clip-rule:evenodd;fill:url(#SVGID_1_);}
	.st1{fill-rule:evenodd;clip-rule:evenodd;fill:url(#SVGID_2_);}
	.st2{fill-rule:evenodd;clip-rule:evenodd;fill:url(#SVGID_3_);}
</style>
<g>
	
		<linearGradient id="SVGID_1_" gradientUnits="userSpaceOnUse" x1="-844.0622" y1="38.4574" x2="-843.0622" y2="38.4574" gradientTransform="matrix(30.6489 0 0 25.4616 25883.8926 -966.4006)">
		<stop  offset="0" style="stop-color:#5E09BF"/>
		<stop  offset="1" style="stop-color:#EE3D59"/>
	</linearGradient>
	<path class="st0" d="M44.5,0.1L29.8,7.4c-0.1,0-0.2,0-0.3,0L14.9,0.1c-0.1-0.1-0.3-0.1-0.4,0s-0.2,0.2-0.1,0.4l3.7,18.3l6.2-2.1
		c0.2-0.1,0.3,0,0.4,0.2l5,8.7h10c0.2,0,0.3-0.1,0.4-0.3l5-24.7c0-0.1,0-0.3-0.1-0.4S44.6,0,44.5,0.1L44.5,0.1z"/>
	
		<linearGradient id="SVGID_2_" gradientUnits="userSpaceOnUse" x1="-842.3589" y1="27.8476" x2="-842.785" y2="28.7807" gradientTransform="matrix(29.59 0 0 34.6894 24945.7188 -948.5939)">
		<stop  offset="0" style="stop-color:#5E01BF"/>
		<stop  offset="0.6904" style="stop-color:#2AB1C7"/>
	</linearGradient>
	<path class="st1" d="M24.7,34.3c-0.1-0.1-0.2-0.3-0.1-0.4l5-8.6l-5-8.6c-0.1-0.1-0.3-0.2-0.4-0.2l-24,7.9C0.1,24.5,0,24.6,0,24.7
		S0,25,0.2,25l13.7,9c0.1,0,0.1,0.1,0.1,0.2l1,16.5c0,0.1,0.1,0.3,0.2,0.3c0.1,0.1,0.3,0,0.4-0.1l14-12.3
		C29.6,38.6,24.7,34.3,24.7,34.3z"/>
	
		<linearGradient id="SVGID_3_" gradientUnits="userSpaceOnUse" x1="-846.8403" y1="30.6034" x2="-846.8403" y2="29.6034" gradientTransform="matrix(34.6407 0 0 32.6067 29377.0566 -946.7581)">
		<stop  offset="0.1006" style="stop-color:#2AB1C7"/>
		<stop  offset="1" style="stop-color:#EE3D59"/>
	</linearGradient>
	<path class="st2" d="M58.9,24.5l-17.7-6L40,25c0,0.2-0.2,0.3-0.4,0.3h-10l-5,8.6c-0.1,0.2-0.1,0.3,0.1,0.5l19,16.7
		c0.1,0.1,0.2,0.1,0.4,0.1c0.1-0.1,0.2-0.2,0.2-0.3l1-16.4c0-0.1,0.1-0.2,0.1-0.2l13.7-9c0.1-0.1,0.2-0.2,0.2-0.4
		C59.2,24.7,59.1,24.6,58.9,24.5L58.9,24.5z"/>
</g>
</svg>
